<svg width="16" height="20" viewBox="0 0 16 20" fill="none" xmlns="http://www.w3.org/2000/svg">
<path d="M14.6875 11.2188L9.6875 16.2188C9.5 16.4062 9.25 16.5 9 16.5C8.71875 16.5 8.46875 16.4062 8.28125 16.2188C7.875 15.8438 7.875 15.1875 8.28125 14.8125L11.5625 11.5H2C1.4375 11.5 1 11.0625 1 10.5C1 9.96875 1.4375 9.5 2 9.5H11.5625L8.28125 6.21875C7.875 5.84375 7.875 5.1875 8.28125 4.8125C8.65625 4.40625 9.3125 4.40625 9.6875 4.8125L14.6875 9.8125C15.0938 10.1875 15.0938 10.8438 14.6875 11.2188Z" fill="#1B1B1B"/>
</svg>
