<svg viewBox="0 0 20 20" fill="currentColor" xmlns="http://www.w3.org/2000/svg">
  <path d="M16.6406 10.7657L11.6406 15.7657C11.4531 15.9531 11.2031 16.0469 10.9531 16.0469C10.6718 16.0469 10.4218 15.9531 10.2343 15.7657C9.8281 15.3907 9.8281 14.7344 10.2343 14.3594L13.5156 11.0469H3.9531C3.3906 11.0469 2.9531 10.6094 2.9531 10.0469C2.9531 9.5156 3.3906 9.0469 3.9531 9.0469H13.5156L10.2343 5.7656C9.8281 5.3906 9.8281 4.7344 10.2343 4.3594C10.6093 3.9531 11.2656 3.9531 11.6406 4.3594L16.6406 9.3594C17.0469 9.7344 17.0469 10.3907 16.6406 10.7657Z" fill="currentColor"/>
</svg>