<svg width="20" height="20" viewBox="0 0 20 20" fill="none" xmlns="http://www.w3.org/2000/svg">
<path d="M18.75 10C18.75 10.3516 18.4375 10.625 18.0859 10.625H3.35938L8.82812 16.4844C9.0625 16.7188 9.0625 17.1094 8.78906 17.3438C8.67188 17.4609 8.51562 17.5 8.35938 17.5C8.16406 17.5 8.00781 17.4609 7.89062 17.3047L1.40625 10.4297C1.17188 10.1953 1.17188 9.84375 1.40625 9.60938L7.89062 2.73438C8.125 2.46094 8.51562 2.46094 8.78906 2.69531C9.0625 2.92969 9.0625 3.32031 8.82812 3.55469L3.35938 9.375H18.0859C18.4375 9.375 18.75 9.6875 18.75 10Z" fill="white"/>
</svg>
