<svg width="16" height="20" viewBox="0 0 16 20" fill="none" xmlns="http://www.w3.org/2000/svg">
<path d="M12.5 2.5C13.3125 2.5 14 3.1875 14 4V17C14 17.8438 13.3125 18.5 12.5 18.5H9.5V16C9.5 15.1875 8.8125 14.5 8 14.5C7.15625 14.5 6.5 15.1875 6.5 16V18.5H3.5C2.65625 18.5 2 17.8438 2 17V4C2 3.1875 2.65625 2.5 3.5 2.5H12.5ZM4 11C4 11.2812 4.21875 11.5 4.5 11.5H5.5C5.75 11.5 6 11.2812 6 11V10C6 9.75 5.75 9.5 5.5 9.5H4.5C4.21875 9.5 4 9.75 4 10V11ZM7.5 9.5C7.21875 9.5 7 9.75 7 10V11C7 11.2812 7.21875 11.5 7.5 11.5H8.5C8.75 11.5 9 11.2812 9 11V10C9 9.75 8.75 9.5 8.5 9.5H7.5ZM10 11C10 11.2812 10.2188 11.5 10.5 11.5H11.5C11.75 11.5 12 11.2812 12 11V10C12 9.75 11.75 9.5 11.5 9.5H10.5C10.2188 9.5 10 9.75 10 10V11ZM4.5 5.5C4.21875 5.5 4 5.75 4 6V7C4 7.28125 4.21875 7.5 4.5 7.5H5.5C5.75 7.5 6 7.28125 6 7V6C6 5.75 5.75 5.5 5.5 5.5H4.5ZM7 7C7 7.28125 7.21875 7.5 7.5 7.5H8.5C8.75 7.5 9 7.28125 9 7V6C9 5.75 8.75 5.5 8.5 5.5H7.5C7.21875 5.5 7 5.75 7 6V7ZM10.5 5.5C10.2188 5.5 10 5.75 10 6V7C10 7.28125 10.2188 7.5 10.5 7.5H11.5C11.75 7.5 12 7.28125 12 7V6C12 5.75 11.75 5.5 11.5 5.5H10.5Z" fill="#FF733C"/>
</svg>
