<svg viewBox="0 0 86 16" fill="none" xmlns="http://www.w3.org/2000/svg">
<g clip-path="url(#clip0_2_11332)">
<path d="M0 0.00634766H15.9915V15.9978H0V0.00634766ZM17.3241 0.00634766H33.3156V15.9978H17.3241V0.00634766ZM34.6482 0.00634766H50.6397V15.9978H34.6482V0.00634766ZM51.9723 0.00634766H67.9638V15.9978H51.9723V0.00634766ZM69.2964 0.00634766H85.2878V15.9978H69.2964V0.00634766Z" fill="#00B67A"/>
<path d="M7.99573 10.7818L10.4278 10.1654L11.4439 13.2971L7.99573 10.7818ZM13.5927 6.73394H9.31169L7.99573 2.70276L6.67976 6.73394H2.39871L5.86353 9.23261L4.54757 13.2638L8.01238 10.7651L10.1446 9.23261L13.5927 6.73394ZM25.3198 10.7818L27.7519 10.1654L28.768 13.2971L25.3198 10.7818ZM30.9168 6.73394H26.6358L25.3198 2.70276L24.0039 6.73394H19.7228L23.1876 9.23261L21.8717 13.2638L25.3365 10.7651L27.4687 9.23261L30.9168 6.73394ZM42.6439 10.7818L45.076 10.1654L46.0921 13.2971L42.6439 10.7818ZM48.2409 6.73394H43.9599L42.6439 2.70276L41.3279 6.73394H37.0469L40.5117 9.23261L39.1958 13.2638L42.6606 10.7651L44.7928 9.23261L48.2409 6.73394ZM59.968 10.7818L62.4 10.1654L63.4162 13.2971L59.968 10.7818ZM65.565 6.73394H61.284L59.968 2.70276L58.652 6.73394H54.371L57.8358 9.23261L56.5198 13.2638L59.9847 10.7651L62.1169 9.23261L65.565 6.73394ZM77.2921 10.7818L79.7241 10.1654L80.7403 13.2971L77.2921 10.7818ZM82.8891 6.73394H78.6081L77.2921 2.70276L75.9761 6.73394H71.6951L75.1599 9.23261L73.8439 13.2638L77.3088 10.7651L79.4409 9.23261L82.8891 6.73394Z" fill="white"/>
</g>
<defs>
<clipPath id="clip0_2_11332">
<rect width="85.2878" height="16" fill="white"/>
</clipPath>
</defs>
</svg>