<svg width="18" height="20" viewBox="0 0 18 20" fill="none" xmlns="http://www.w3.org/2000/svg">
<path d="M17.9688 10.5C17.9688 11.0625 17.5 11.5 16.9688 11.5H15.9688L16 16.5C16 16.5938 16 16.6875 16 16.75V17.25C16 17.9688 15.4375 18.5 14.75 18.5H14.25C14.1875 18.5 14.1562 18.5 14.125 18.5C14.0938 18.5 14.0312 18.5 14 18.5H12.25C11.5312 18.5 11 17.9688 11 17.25V14.5C11 13.9688 10.5312 13.5 10 13.5H8C7.4375 13.5 7 13.9688 7 14.5V17.25C7 17.9688 6.4375 18.5 5.75 18.5H4C3.9375 18.5 3.90625 18.5 3.84375 18.5C3.8125 18.5 3.78125 18.5 3.75 18.5H3.25C2.53125 18.5 2 17.9688 2 17.25V13.75C2 13.75 2 13.7188 2 13.6875V11.5H1C0.4375 11.5 0 11.0625 0 10.5C0 10.2188 0.09375 9.96875 0.3125 9.75L8.3125 2.78125C8.53125 2.5625 8.78125 2.5 9 2.5C9.21875 2.5 9.46875 2.59375 9.65625 2.75L17.625 9.75C17.875 9.96875 18 10.2188 17.9688 10.5Z" fill="#FF733C"/>
</svg>
