<svg width="12" height="12" viewBox="0 0 12 12" fill="currentColor" xmlns="http://www.w3.org/2000/svg">
<path d="M12 3V9C12 10.2656 10.9922 11.25 9.75 11.25H8.0625C7.73438 11.25 7.5 11.0156 7.5 10.6875C7.5 10.3828 7.73438 10.125 8.0625 10.125H9.75C10.3594 10.125 10.875 9.63281 10.875 9V3C10.875 2.39062 10.3594 1.875 9.75 1.875H8.0625C7.73438 1.875 7.5 1.64062 7.5 1.3125C7.5 1.00781 7.73438 0.75 8.0625 0.75H9.75C10.9922 0.75 12 1.75781 12 3ZM8.60156 6.42188L5.03906 9.5625C4.89844 9.70312 4.71094 9.75 4.52344 9.75C4.40625 9.75 4.28906 9.75 4.19531 9.70312C3.91406 9.5625 3.75 9.30469 3.75 9V7.6875H0.9375C0.398438 7.6875 0 7.28906 0 6.75V5.25C0 4.73438 0.398438 4.3125 0.9375 4.3125H3.75V3.02344C3.75 2.71875 3.91406 2.46094 4.19531 2.32031C4.47656 2.20312 4.80469 2.25 5.03906 2.46094L8.60156 5.57812C8.74219 5.69531 8.8125 5.85938 8.8125 6C8.8125 6.16406 8.74219 6.32812 8.60156 6.42188ZM7.38281 6L4.875 3.79688V5.4375H1.125V6.5625H4.875V8.22656L7.38281 6Z" fill="currentColor"/>
</svg>
