<svg width="111" height="28" viewBox="0 0 111 28" fill="none" xmlns="http://www.w3.org/2000/svg">
<g id="Logomark" clip-path="url(#clip0_5075_129)">
<path id="Bubble" d="M95.8633 0H14.3938C5.86805 0 0 5.70577 0 14C0 22.2942 5.86626 28.007 14.3938 28.007H95.8633C104.389 28.007 110.257 22.3012 110.257 14.007C110.257 5.71272 104.382 0 95.8633 0Z" fill="#1B1B1B"/>
<g id="Textmark">
<path id="R" d="M98.4423 11.9872C98.4423 8.7847 96.4374 7.01904 92.7657 7.01904H86.286C86.1605 7.00913 86.0343 7.02552 85.9159 7.06709C85.7975 7.10866 85.6897 7.17446 85.5997 7.26004C85.5096 7.34561 85.4395 7.44898 85.3941 7.56315C85.3487 7.67733 85.3289 7.79966 85.3363 7.92188V20.0745C85.3363 20.6294 85.7154 20.9773 86.286 20.9773H89.1779C89.3034 20.9872 89.4296 20.9708 89.548 20.9293C89.6664 20.8877 89.7742 20.8219 89.8642 20.7363C89.9543 20.6507 90.0244 20.5474 90.0698 20.4332C90.1152 20.319 90.135 20.1967 90.1276 20.0745V17.0563C90.1258 17.0289 90.13 17.0014 90.1399 16.9757C90.1499 16.95 90.1654 16.9266 90.1854 16.9072C90.2053 16.8878 90.2294 16.8727 90.2558 16.863C90.2822 16.8533 90.3105 16.8493 90.3387 16.8511H91.1203C91.3742 19.5195 92.7299 20.9773 95.2785 20.9773H97.3049C97.4303 20.9872 97.5565 20.9708 97.6749 20.9293C97.7933 20.8877 97.9012 20.8219 97.9912 20.7363C98.0812 20.6507 98.1513 20.5474 98.1967 20.4332C98.2421 20.319 98.2619 20.1967 98.2546 20.0745V18.2479C98.2546 17.693 97.8754 17.3451 97.3049 17.3451H96.1012C95.4895 17.3451 95.1086 17.0789 95.046 16.5449C97.2602 15.9708 98.4423 14.4505 98.4423 11.9872ZM92.5117 13.5528H90.3387C90.3105 13.5546 90.2822 13.5506 90.2558 13.5409C90.2294 13.5312 90.2053 13.5161 90.1854 13.4967C90.1654 13.4773 90.1499 13.4539 90.1399 13.4282C90.13 13.4025 90.1258 13.375 90.1276 13.3476V11.0427C90.1258 11.0152 90.13 10.9877 90.1399 10.962C90.1499 10.9363 90.1654 10.913 90.1854 10.8935C90.2053 10.8741 90.2294 10.859 90.2558 10.8494C90.2822 10.8397 90.3105 10.8356 90.3387 10.8374H92.5117C93.4399 10.8374 93.9049 11.4949 93.9049 12.1925C93.9128 12.3725 93.8821 12.5521 93.8149 12.72C93.7476 12.8878 93.6453 13.0403 93.5143 13.1677C93.3833 13.2951 93.2266 13.3946 93.054 13.46C92.8814 13.5254 92.6968 13.5553 92.5117 13.5476V13.5528Z" fill="white"/>
<path id="E" d="M77.3596 10.5313H82.7626C82.8881 10.5412 83.0143 10.5248 83.1327 10.4832C83.2511 10.4417 83.3589 10.3759 83.4489 10.2903C83.5389 10.2047 83.609 10.1014 83.6545 9.98718C83.6999 9.873 83.7196 9.75067 83.7123 9.62845V7.92542C83.7123 7.3705 83.3332 7.02259 82.7626 7.02259H73.4624C73.337 7.01267 73.2108 7.02906 73.0924 7.07063C72.974 7.1122 72.8662 7.178 72.7761 7.26358C72.6861 7.34915 72.616 7.45252 72.5706 7.56669C72.5252 7.68087 72.5054 7.8032 72.5128 7.92542V20.078C72.5128 20.6329 72.8919 20.9808 73.4624 20.9808H83.0577C83.1832 20.9907 83.3094 20.9744 83.4278 20.9328C83.5462 20.8912 83.654 20.8254 83.744 20.7398C83.834 20.6543 83.9041 20.5509 83.9496 20.4367C83.995 20.3226 84.0147 20.2002 84.0074 20.078V18.375C84.0074 17.82 83.6283 17.4721 83.0577 17.4721H77.3596C77.3314 17.4739 77.3031 17.4698 77.2767 17.4602C77.2502 17.4505 77.2262 17.4354 77.2063 17.416C77.1863 17.3966 77.1708 17.3732 77.1608 17.3475C77.1509 17.3218 77.1467 17.2943 77.1485 17.2669V15.83C77.1467 15.8026 77.1509 15.7751 77.1608 15.7494C77.1708 15.7236 77.1863 15.7003 77.2063 15.6809C77.2262 15.6614 77.2502 15.6464 77.2767 15.6367C77.3031 15.627 77.3314 15.6229 77.3596 15.6247H81.7915C81.9169 15.6346 82.0431 15.6182 82.1615 15.5767C82.2799 15.5351 82.3878 15.4693 82.4778 15.3837C82.5678 15.2982 82.6379 15.1948 82.6833 15.0806C82.7288 14.9664 82.7485 14.8441 82.7412 14.7219V13.1563C82.7412 12.6014 82.362 12.2534 81.7915 12.2534H77.3596C77.3314 12.2552 77.3031 12.2512 77.2767 12.2415C77.2502 12.2318 77.2262 12.2167 77.2063 12.1973C77.1863 12.1779 77.1708 12.1545 77.1608 12.1288C77.1509 12.1031 77.1467 12.0756 77.1485 12.0482V10.74C77.1464 10.7124 77.1505 10.6846 77.1603 10.6586C77.1701 10.6326 77.1855 10.609 77.2055 10.5892C77.2255 10.5694 77.2495 10.5541 77.2761 10.5441C77.3027 10.5341 77.3311 10.5297 77.3596 10.5313Z" fill="white"/>
<path id="P" d="M59.505 7.02084C59.3796 7.01093 59.2534 7.02732 59.135 7.06889C59.0166 7.11046 58.9088 7.17626 58.8187 7.26183C58.7287 7.34741 58.6586 7.45078 58.6132 7.56495C58.5678 7.67913 58.548 7.80145 58.5554 7.92368V20.0763C58.5554 20.6312 58.9345 20.9791 59.505 20.9791H62.397C62.5225 20.989 62.6487 20.9726 62.7671 20.931C62.8855 20.8895 62.9933 20.8237 63.0833 20.7381C63.1734 20.6525 63.2435 20.5492 63.2889 20.435C63.3343 20.3208 63.3541 20.1985 63.3467 20.0763V18.1053C63.3472 17.9366 63.4163 17.7749 63.539 17.6556C63.6616 17.5363 63.8279 17.4691 64.0013 17.4687H65.5412C69.213 17.4687 71.2179 15.6212 71.2179 12.2343C71.2179 8.84738 69.213 7.01562 65.5412 7.01562L59.505 7.02084ZM66.6805 12.3787C66.6805 13.3233 66.0474 13.9182 65.0708 13.9182H63.5506C63.5224 13.92 63.4942 13.9159 63.4677 13.9062C63.4413 13.8966 63.4173 13.8815 63.3973 13.8621C63.3773 13.8426 63.3618 13.8193 63.3519 13.7936C63.3419 13.7678 63.3377 13.7404 63.3396 13.7129V11.0445C63.3377 11.017 63.3419 10.9895 63.3519 10.9638C63.3618 10.9381 63.3773 10.9148 63.3973 10.8953C63.4173 10.8759 63.4413 10.8608 63.4677 10.8512C63.4942 10.8415 63.5224 10.8374 63.5506 10.8392H65.0708C66.0474 10.8392 66.6805 11.4341 66.6805 12.3787Z" fill="white"/>
<path id="M" d="M53.0253 20.9791H55.6634C55.7888 20.989 55.915 20.9726 56.0334 20.931C56.1518 20.8894 56.2596 20.8237 56.3497 20.7381C56.4397 20.6525 56.5098 20.5491 56.5552 20.435C56.6006 20.3208 56.6204 20.1985 56.613 20.0762V7.92365C56.613 7.36873 56.2339 7.02082 55.6634 7.02082H51.9272C51.2941 7.02082 50.872 7.32872 50.6395 8.00541L49.4161 11.4811C49.3848 11.6105 49.3095 11.7258 49.2024 11.8083C49.0953 11.8909 48.9626 11.9358 48.8259 11.9358C48.6893 11.9358 48.5566 11.8909 48.4495 11.8083C48.3423 11.7258 48.267 11.6105 48.2357 11.4811L47.0124 8.00193C46.7799 7.32524 46.3578 7.01734 45.7247 7.01734H41.9885C41.863 7.00742 41.7369 7.02381 41.6185 7.06538C41.5001 7.10695 41.3922 7.17275 41.3022 7.25833C41.2122 7.3439 41.1421 7.44727 41.0967 7.56144C41.0512 7.67562 41.0315 7.79795 41.0388 7.92017V20.0728C41.0388 20.6277 41.418 20.9756 41.9885 20.9756H44.6265C44.752 20.9855 44.8782 20.9691 44.9966 20.9275C45.115 20.886 45.2228 20.8202 45.3128 20.7346C45.4029 20.649 45.4729 20.5457 45.5184 20.4315C45.5638 20.3173 45.5835 20.195 45.5762 20.0728V13.405C45.5762 13.3024 45.6192 13.2606 45.6817 13.2606C45.7116 13.2618 45.7401 13.2725 45.7631 13.291C45.786 13.3096 45.8021 13.335 45.8087 13.3633L47.329 17.6321C47.5185 18.1871 47.8136 18.4115 48.2572 18.4115H49.3965C49.84 18.4115 50.1351 18.1853 50.3247 17.6321L51.8449 13.3633C51.8513 13.3348 51.8672 13.3093 51.8902 13.2907C51.9133 13.2721 51.942 13.2615 51.9719 13.2606C52.0345 13.2606 52.0774 13.3024 52.0774 13.405V20.0762C52.0701 20.1983 52.0898 20.3205 52.1351 20.4345C52.1805 20.5486 52.2504 20.6518 52.3402 20.7374C52.43 20.8229 52.5377 20.8888 52.6558 20.9304C52.774 20.9721 52.9 20.9887 53.0253 20.9791Z" fill="white"/>
<path id="U" d="M30.4044 7.02075H27.364C27.2385 7.01084 27.1123 7.02723 26.9939 7.0688C26.8756 7.11037 26.7677 7.17617 26.6777 7.26174C26.5877 7.34732 26.5176 7.45069 26.4721 7.56486C26.4267 7.67904 26.407 7.80136 26.4143 7.92359V15.355C26.4143 19.182 28.6732 21.2695 32.8726 21.2695C37.0719 21.2695 39.3308 19.182 39.3308 15.355V7.92359C39.3308 7.36867 38.9516 7.02075 38.3811 7.02075H35.3407C35.2152 7.01084 35.089 7.02723 34.9706 7.0688C34.8522 7.11037 34.7444 7.17617 34.6544 7.26174C34.5644 7.34732 34.4943 7.45069 34.4488 7.56486C34.4034 7.67904 34.3837 7.80136 34.391 7.92359V15.3741C34.391 16.4179 33.8008 17.098 32.8708 17.098C31.9407 17.098 31.3505 16.4214 31.3505 15.3741V7.92359C31.3578 7.80168 31.3382 7.67967 31.2929 7.56576C31.2477 7.45185 31.1779 7.34867 31.0883 7.26315C30.9987 7.17763 30.8913 7.11176 30.7734 7.06995C30.6554 7.02814 30.5296 7.01137 30.4044 7.02075Z" fill="white"/>
<path id="B" d="M24.81 10.6947C24.81 8.45763 23.1217 7.02075 20.4622 7.02075H12.8217C12.6963 7.01084 12.5701 7.02723 12.4517 7.0688C12.3333 7.11037 12.2254 7.17617 12.1354 7.26175C12.0454 7.34732 11.9753 7.45069 11.9299 7.56486C11.8844 7.67904 11.8647 7.80136 11.872 7.92359V20.0762C11.872 20.6311 12.2512 20.979 12.8217 20.979H20.5462C23.4168 20.979 25.2732 19.4134 25.2732 17.018C25.2732 15.3759 24.4916 14.2052 23.0144 13.5893C24.1965 13.1371 24.81 12.1316 24.81 10.6947ZM16.599 10.4894C16.5972 10.4619 16.6014 10.4342 16.6115 10.4084C16.6215 10.3825 16.6372 10.3591 16.6573 10.3396C16.6775 10.3202 16.7017 10.3051 16.7284 10.2956C16.7551 10.286 16.7835 10.2821 16.8119 10.2842H19.1548C19.8934 10.2842 20.3584 10.7365 20.3584 11.4132C20.3584 12.0898 19.8934 12.5421 19.1548 12.5421H16.8119C16.7837 12.5439 16.7554 12.5398 16.729 12.5302C16.7025 12.5205 16.6785 12.5054 16.6585 12.486C16.6386 12.4666 16.6231 12.4432 16.6131 12.4175C16.6032 12.3918 16.599 12.3643 16.6008 12.3369L16.599 10.4894ZM19.364 17.7156H16.8119C16.7837 17.7174 16.7554 17.7133 16.729 17.7036C16.7025 17.6939 16.6785 17.6789 16.6585 17.6594C16.6386 17.64 16.6231 17.6167 16.6131 17.5909C16.6032 17.5652 16.599 17.5377 16.6008 17.5103V15.6212C16.599 15.5937 16.6032 15.5663 16.6131 15.5405C16.6231 15.5148 16.6386 15.4915 16.6585 15.472C16.6785 15.4526 16.7025 15.4375 16.729 15.4279C16.7554 15.4182 16.7837 15.4141 16.8119 15.4159H19.3658C20.1045 15.4159 20.5695 15.8682 20.5695 16.5657C20.5695 17.2633 20.1027 17.7156 19.364 17.7156Z" fill="white"/>
</g>
</g>
<defs>
<clipPath id="clip0_5075_129">
<rect width="110.25" height="28" fill="white"/>
</clipPath>
</defs>
</svg>
