<svg width="16" height="20" viewBox="0 0 16 20" fill="none" xmlns="http://www.w3.org/2000/svg">
<path d="M8 13.5C8.5 13.5 9.03125 13.3438 9.46875 13L16 7.9375V15C16 15.8438 15.3125 16.5 14.5 16.5H1.5C0.65625 16.5 0 15.8438 0 15V7.9375L6.5 13C6.9375 13.3438 7.46875 13.5 8 13.5ZM0.5 7.0625C0.1875 6.8125 0 6.40625 0 6C0 5.1875 0.65625 4.5 1.5 4.5H14.5C15.3125 4.5 16 5.1875 16 6C16 6.40625 15.7812 6.8125 15.4688 7.0625L8.84375 12.2188C8.34375 12.5938 7.625 12.5938 7.125 12.2188L0.5 7.0625Z" fill="#FF733C"/>
</svg>
