<svg viewBox="0 0 65 16" fill="none" xmlns="http://www.w3.org/2000/svg">
<path d="M17.0609 5.82019H23.4989V7.01873H20.9641V13.7751H19.5746V7.01873H17.0503L17.0609 5.82019ZM23.2233 8.01574H24.4113V9.12944H24.4324C24.475 8.97035 24.5493 8.82184 24.6551 8.67336C24.7613 8.52485 24.8886 8.38699 25.0477 8.27029C25.1961 8.14302 25.3659 8.04756 25.5568 7.9733C25.737 7.89908 25.9279 7.85665 26.1188 7.85665C26.2675 7.85665 26.3734 7.86726 26.4266 7.86726C26.4796 7.87785 26.5432 7.88846 26.5961 7.88846V9.10821C26.5114 9.08701 26.4159 9.07639 26.3205 9.06581C26.225 9.05519 26.1403 9.04457 26.0448 9.04457C25.8324 9.04457 25.6312 9.08701 25.4402 9.17184C25.2493 9.25672 25.0899 9.384 24.9415 9.54309C24.8035 9.7128 24.687 9.9143 24.6022 10.1583C24.5171 10.4022 24.475 10.6886 24.475 11.0068V13.7433H23.2021L23.2233 8.01574ZM32.4404 13.7751H31.1784V12.969H31.157C30.9979 13.266 30.7648 13.4887 30.4569 13.6691C30.1495 13.8494 29.8313 13.9342 29.5131 13.9342C28.7598 13.9342 28.2085 13.7539 27.8689 13.3721C27.5296 13.0008 27.3598 12.4281 27.3598 11.675V8.01574H28.6325V11.5477C28.6325 12.0569 28.728 12.4175 28.9296 12.619C29.1205 12.8311 29.3965 12.9372 29.7462 12.9372C30.0115 12.9372 30.2342 12.8948 30.4147 12.8099C30.5949 12.7251 30.7433 12.619 30.8495 12.4811C30.966 12.3432 31.0404 12.1735 31.0933 11.9826C31.1466 11.7917 31.1677 11.5795 31.1677 11.3568V8.01574H32.4404V13.7751ZM34.5938 11.9296C34.636 12.3008 34.774 12.5554 35.0178 12.7144C35.2616 12.863 35.5587 12.9372 35.8984 12.9372C36.0149 12.9372 36.1529 12.9266 36.3013 12.9054C36.4496 12.8842 36.5984 12.8523 36.7256 12.7993C36.8633 12.7463 36.9695 12.672 37.0542 12.566C37.1393 12.4599 37.1815 12.3326 37.1711 12.1735C37.1604 12.0144 37.1075 11.8765 36.9906 11.7705C36.874 11.6644 36.736 11.5902 36.5666 11.5159C36.3967 11.4523 36.1951 11.3993 35.9724 11.3568C35.7496 11.3144 35.5269 11.2614 35.2938 11.2083C35.0603 11.1553 34.8269 11.0916 34.6041 11.0174C34.3814 10.9432 34.1905 10.8477 34.0103 10.7098C33.8405 10.5825 33.6921 10.4234 33.5967 10.2219C33.4905 10.0204 33.4376 9.78703 33.4376 9.49007C33.4376 9.17185 33.5116 8.91729 33.6707 8.70518C33.8194 8.49303 34.0207 8.32331 34.2541 8.19604C34.4876 8.06876 34.7525 7.9733 35.0389 7.92028C35.3252 7.86726 35.6013 7.84603 35.8558 7.84603C36.1529 7.84603 36.4393 7.87785 36.7042 7.94148C36.9695 8.00512 37.224 8.10058 37.436 8.24909C37.6588 8.38699 37.8393 8.5779 37.977 8.80063C38.1257 9.02337 38.2104 9.29912 38.253 9.61735H36.9269C36.8633 9.30974 36.7256 9.10821 36.5133 9.00217C36.2906 8.89609 36.0467 8.84304 35.7603 8.84304C35.6756 8.84304 35.5587 8.85365 35.4422 8.86427C35.3149 8.88547 35.2087 8.90671 35.0922 8.94911C34.986 8.99155 34.8905 9.05519 34.8161 9.12944C34.7421 9.20366 34.6996 9.30974 34.6996 9.43702C34.6996 9.59611 34.7525 9.7128 34.8587 9.80826C34.9649 9.90372 35.1029 9.97798 35.2831 10.0522C35.4529 10.1158 35.6542 10.1689 35.8769 10.2113C36.0996 10.2537 36.3331 10.3067 36.5666 10.3598C36.7997 10.4128 37.0224 10.4765 37.2451 10.5507C37.4679 10.625 37.6695 10.7204 37.8393 10.8583C38.0088 10.9856 38.1575 11.1447 38.2633 11.3356C38.3695 11.5265 38.4224 11.7705 38.4224 12.0462C38.4224 12.3856 38.3484 12.672 38.1893 12.916C38.0302 13.1493 37.8286 13.3509 37.5848 13.4993C37.3406 13.6479 37.0542 13.7539 36.7575 13.8282C36.4496 13.8918 36.1529 13.9342 35.8558 13.9342C35.4951 13.9342 35.1558 13.8918 34.8483 13.807C34.5405 13.7221 34.2649 13.5948 34.0421 13.4357C33.8194 13.266 33.6388 13.0645 33.5116 12.8099C33.3843 12.566 33.3103 12.269 33.2996 11.919H34.583V11.9296H34.5938ZM38.7832 8.01574H39.7485V6.27628H41.0212V8.00512H42.1667V8.94911H41.0212V12.025C41.0212 12.1629 41.0319 12.269 41.0423 12.3751C41.053 12.4705 41.0849 12.5554 41.1167 12.619C41.1592 12.6826 41.2229 12.7357 41.2969 12.7675C41.382 12.7993 41.4878 12.8205 41.6365 12.8205C41.7212 12.8205 41.8167 12.8205 41.9014 12.8099C41.9865 12.7993 42.082 12.7887 42.1667 12.7675V13.7539C42.0287 13.7751 41.8911 13.7857 41.7531 13.7963C41.6151 13.8175 41.4878 13.8175 41.3394 13.8175C41.0001 13.8175 40.7348 13.7857 40.5332 13.7221C40.3319 13.6584 40.1728 13.563 40.0559 13.4463C39.9394 13.319 39.865 13.1705 39.8228 12.9902C39.7803 12.8099 39.7588 12.5872 39.7485 12.3538V8.95973H38.7832V7.99454V8.01574ZM43.0576 8.01574H44.256V8.80063H44.2775C44.4577 8.46121 44.7019 8.22786 45.0201 8.07938C45.3382 7.9309 45.6775 7.85665 46.0594 7.85665C46.5155 7.85665 46.9077 7.9309 47.2474 8.10058C47.5867 8.25967 47.8623 8.47183 48.0851 8.7582C48.3078 9.03399 48.4776 9.36276 48.5838 9.73401C48.6896 10.1053 48.7533 10.5083 48.7533 10.9219C48.7533 11.3144 48.7003 11.6856 48.6049 12.0462C48.4987 12.4069 48.3503 12.7357 48.1487 13.0114C47.9474 13.2872 47.6929 13.51 47.3747 13.6797C47.0565 13.8494 46.6957 13.9342 46.2714 13.9342C46.0912 13.9342 45.9003 13.913 45.7197 13.8812C45.5395 13.8494 45.3593 13.7963 45.1895 13.7221C45.0201 13.6479 44.8606 13.5524 44.723 13.4357C44.5742 13.319 44.4577 13.1812 44.3622 13.0326H44.3411V15.907H43.0684V8.01574H43.0576ZM47.5019 10.9007C47.5019 10.6462 47.4701 10.3916 47.3958 10.1477C47.3321 9.90372 47.2259 9.69157 47.0883 9.50065C46.9503 9.30974 46.7805 9.16126 46.5896 9.04457C46.3883 8.92791 46.1548 8.87486 45.9003 8.87486C45.3697 8.87486 44.9668 9.05519 44.6911 9.42643C44.4259 9.79764 44.2879 10.2962 44.2879 10.9113C44.2879 11.2083 44.3197 11.4735 44.394 11.7174C44.4684 11.9614 44.5639 12.1735 44.7122 12.3538C44.8502 12.5342 45.0201 12.672 45.2213 12.7781C45.423 12.8842 45.6457 12.9372 45.911 12.9372C46.2077 12.9372 46.4412 12.8735 46.6428 12.7569C46.8441 12.6402 47.0032 12.4811 47.1412 12.3008C47.2685 12.1099 47.3639 11.8977 47.4169 11.6538C47.4701 11.3993 47.5019 11.1553 47.5019 10.9007ZM49.7396 5.82019H51.0128V7.01873H49.7396V5.82019ZM49.7396 8.01574H51.0128V13.7751H49.7396V8.01574ZM52.1475 5.82019H53.4203V13.7751H52.1475V5.82019ZM57.3022 13.9342C56.8464 13.9342 56.4327 13.86 56.072 13.7009C55.7113 13.5418 55.4145 13.3402 55.16 13.0751C54.9158 12.8099 54.7249 12.4811 54.5976 12.1099C54.4703 11.7386 54.396 11.325 54.396 10.8901C54.396 10.4553 54.4596 10.0522 54.5976 9.68099C54.7249 9.30974 54.9158 8.99155 55.16 8.71576C55.4038 8.45062 55.7113 8.23847 56.072 8.09C56.4327 7.94148 56.8464 7.85665 57.3022 7.85665C57.7584 7.85665 58.1721 7.9309 58.5328 8.09C58.8932 8.23847 59.1903 8.45062 59.4448 8.71576C59.6886 8.98093 59.8796 9.30974 60.0068 9.68099C60.1341 10.0522 60.2085 10.4553 60.2085 10.8901C60.2085 11.3356 60.1448 11.7386 60.0068 12.1099C59.8692 12.4811 59.6886 12.7993 59.4448 13.0751C59.201 13.3402 58.8932 13.5524 58.5328 13.7009C58.1721 13.8494 57.7691 13.9342 57.3022 13.9342ZM57.3022 12.9266C57.5782 12.9266 57.8328 12.863 58.034 12.7463C58.2464 12.6296 58.4055 12.4705 58.5432 12.2796C58.6812 12.0887 58.7766 11.8659 58.8403 11.6326C58.9039 11.3886 58.9357 11.1447 58.9357 10.8901C58.9357 10.6462 58.9039 10.4022 58.8403 10.1583C58.7766 9.9143 58.6812 9.70219 58.5432 9.51127C58.4055 9.32036 58.2357 9.17184 58.034 9.05519C57.822 8.93853 57.5782 8.87486 57.3022 8.87486C57.0266 8.87486 56.772 8.93853 56.5704 9.05519C56.3584 9.17184 56.1993 9.33094 56.0613 9.51127C55.9236 9.70219 55.8278 9.9143 55.7642 10.1583C55.7009 10.4022 55.6691 10.6462 55.6691 10.8901C55.6691 11.1447 55.7009 11.3886 55.7642 11.6326C55.8278 11.8765 55.9236 12.0887 56.0613 12.2796C56.1993 12.4705 56.3691 12.6296 56.5704 12.7463C56.7827 12.8735 57.0266 12.9266 57.3022 12.9266ZM60.5903 8.01574H61.5556V6.27628H62.8284V8.00512H63.9738V8.94911H62.8284V12.025C62.8284 12.1629 62.8391 12.269 62.8495 12.3751C62.8602 12.4705 62.892 12.5554 62.9238 12.619C62.9664 12.6826 63.03 12.7357 63.104 12.7675C63.1891 12.7993 63.2949 12.8205 63.4436 12.8205C63.5284 12.8205 63.6238 12.8205 63.7086 12.8099C63.7937 12.7993 63.8891 12.7887 63.9738 12.7675V13.7539C63.8358 13.7751 63.6982 13.7857 63.5602 13.7963C63.4222 13.8175 63.2949 13.8175 63.1465 13.8175C62.8073 13.8175 62.542 13.7857 62.3404 13.7221C62.1391 13.6584 61.98 13.563 61.8631 13.4463C61.7465 13.319 61.6721 13.1705 61.63 12.9902C61.5874 12.8099 61.5663 12.5872 61.5556 12.3538V8.95973H60.5903V7.99454V8.01574Z" fill="white"/>
<path d="M15.5763 5.81999H9.75326L7.96074 0.283325L6.1576 5.81999L0.33461 5.80937L5.04394 9.23529L3.2408 14.772L7.95013 11.346L12.6595 14.772L10.8669 9.23529L15.5763 5.81999Z" fill="#00B67A"/>
<path d="M11.2694 10.4868L10.8663 9.23523L7.96016 11.3459L11.2694 10.4868Z" fill="#005128"/>
</svg>