<svg width="18" height="20" viewBox="0 0 18 20" fill="none" xmlns="http://www.w3.org/2000/svg">
<path d="M16.8438 6.34375C17.0312 7.09375 17.0312 7.90625 16.7812 8.75C16.3125 10.6875 14.6875 12.1562 12.75 12.4688C11.9062 12.625 11.0938 12.5312 10.375 12.2812L4.8125 17.8438C4.34375 18.2812 3.75 18.5 3.21875 18.5C2.65625 18.5 2.09375 18.2812 1.6875 17.8125C0.78125 16.9375 0.78125 15.5312 1.6875 14.6562L7.25 9.09375C7 8.34375 6.90625 7.53125 7.09375 6.71875C7.375 4.78125 8.875 3.15625 10.8125 2.6875C11.625 2.5 12.4375 2.5 13.1875 2.6875C13.5625 2.78125 13.6875 3.25 13.4062 3.53125L11 5.90625V8.53125H13.625L16 6.125C16.2812 5.84375 16.75 5.96875 16.8438 6.34375ZM3.5 16.75C3.90625 16.75 4.25 16.4375 4.25 16C4.25 15.5938 3.90625 15.25 3.5 15.25C3.0625 15.25 2.75 15.5938 2.75 16C2.75 16.4375 3.0625 16.75 3.5 16.75Z" fill="#FF733C"/>
</svg>
